<svg width="75" height="24" viewBox="0 0 75 24" fill="none" xmlns="http://www.w3.org/2000/svg">
<g clip-path="url(#clip0_22_88)">
<path d="M12.5071 6.88818C12.6462 8.27754 14.2799 8.94594 15.3587 8.06689L18.9026 5.1792L16.0061 8.70459C15.1182 9.78487 15.7992 11.4091 17.1868 11.5474V11.5483L21.7239 11.9995L17.7366 12.396L17.1878 12.4507C15.7997 12.5884 15.118 14.214 16.0061 15.2944L18.9046 18.8228L15.3587 15.9341C14.2799 15.055 12.6462 15.7234 12.5071 17.1128L12.0511 21.6479L11.596 17.1128C11.4569 15.7234 9.8232 15.055 8.74443 15.9341L5.19951 18.8208L8.09795 15.2954C8.98555 14.2151 8.30395 12.5897 6.91631 12.4517L2.37822 11.9995L6.91631 11.5483C8.30393 11.4103 8.98546 9.78493 8.09795 8.70459L5.20146 5.1792L8.74443 8.06689C9.8232 8.94594 11.4569 8.27754 11.596 6.88818L12.0511 2.35205L12.5071 6.88818Z" fill="url(#paint0_linear_22_88)" stroke="url(#paint1_linear_22_88)"/>
<path d="M30.1338 3.51733H33.5219V17.783H41.4269V20.5058H30.1349V3.51733H30.1338Z" fill="black"/>
<path d="M30.1338 3.51733H33.5219V17.783H41.4269V20.5058H30.1349V3.51733H30.1338Z" fill="url(#paint2_linear_22_88)"/>
<path d="M43.5829 2.51782H46.7951V5.61631H43.5829V2.51782ZM43.5829 7.11569H46.7951V20.507H43.5829V7.11569Z" fill="black"/>
<path d="M43.5829 2.51782H46.7951V5.61631H43.5829V2.51782ZM43.5829 7.11569H46.7951V20.507H43.5829V7.11569Z" fill="url(#paint3_linear_22_88)"/>
<path d="M60.8976 16.5586C60.8976 19.1318 58.5134 20.8806 55.1509 20.8806C51.7883 20.8806 49.4542 19.3568 48.9778 16.1342H52.1901C52.4161 17.5837 53.5703 18.4082 55.251 18.4082C56.8316 18.4082 57.6597 17.7333 57.6597 16.7592C57.6597 13.7616 49.3541 16.3348 49.3541 10.9135C49.3541 8.74038 51.0604 6.74121 54.5732 6.74121C57.6597 6.74121 59.9938 8.19072 60.3945 11.5131H57.1822C56.9317 9.88957 55.9779 9.23906 54.4474 9.23906C53.1674 9.23906 52.415 9.86408 52.415 10.713C52.415 13.786 60.8965 11.1873 60.8965 16.5586H60.8976Z" fill="black"/>
<path d="M60.8976 16.5586C60.8976 19.1318 58.5134 20.8806 55.1509 20.8806C51.7883 20.8806 49.4542 19.3568 48.9778 16.1342H52.1901C52.4161 17.5837 53.5703 18.4082 55.251 18.4082C56.8316 18.4082 57.6597 17.7333 57.6597 16.7592C57.6597 13.7616 49.3541 16.3348 49.3541 10.9135C49.3541 8.74038 51.0604 6.74121 54.5732 6.74121C57.6597 6.74121 59.9938 8.19072 60.3945 11.5131H57.1822C56.9317 9.88957 55.9779 9.23906 54.4474 9.23906C53.1674 9.23906 52.415 9.86408 52.415 10.713C52.415 13.786 60.8965 11.1873 60.8965 16.5586H60.8976Z" fill="url(#paint4_linear_22_88)"/>
<path d="M62.9545 11.5118C63.3808 8.53858 65.5646 6.73999 68.9516 6.73999C72.6904 6.73999 74.5982 8.93863 74.5982 12.036V17.2323C74.5982 18.8813 74.7484 19.8055 75 20.5048H71.6631C71.4872 20.0549 71.4126 19.4055 71.387 18.6807C70.2829 20.2299 68.6266 20.8793 67.0205 20.8793C64.3859 20.8793 62.5037 19.5805 62.5037 17.0073C62.5037 15.1833 63.5322 13.8091 65.5902 13.1353C67.3722 12.5358 69.103 12.3862 71.3614 12.3607V12.036C71.3614 10.3117 70.5333 9.38745 68.7513 9.38745C67.2208 9.38745 66.3927 10.2374 66.1913 11.5107H62.9545V11.5118ZM67.8475 18.5078C69.8298 18.5078 71.3603 16.9087 71.3603 14.9107V14.3355C66.7934 14.4109 65.7394 15.4847 65.7394 16.8334C65.7394 17.8573 66.5419 18.5078 67.8475 18.5078Z" fill="black"/>
<path d="M62.9545 11.5118C63.3808 8.53858 65.5646 6.73999 68.9516 6.73999C72.6904 6.73999 74.5982 8.93863 74.5982 12.036V17.2323C74.5982 18.8813 74.7484 19.8055 75 20.5048H71.6631C71.4872 20.0549 71.4126 19.4055 71.387 18.6807C70.2829 20.2299 68.6266 20.8793 67.0205 20.8793C64.3859 20.8793 62.5037 19.5805 62.5037 17.0073C62.5037 15.1833 63.5322 13.8091 65.5902 13.1353C67.3722 12.5358 69.103 12.3862 71.3614 12.3607V12.036C71.3614 10.3117 70.5333 9.38745 68.7513 9.38745C67.2208 9.38745 66.3927 10.2374 66.1913 11.5107H62.9545V11.5118ZM67.8475 18.5078C69.8298 18.5078 71.3603 16.9087 71.3603 14.9107V14.3355C66.7934 14.4109 65.7394 15.4847 65.7394 16.8334C65.7394 17.8573 66.5419 18.5078 67.8475 18.5078Z" fill="url(#paint5_linear_22_88)"/>
</g>
<defs>
<linearGradient id="paint0_linear_22_88" x1="5.95486" y1="-6.61857e-05" x2="23.0375" y2="30.373" gradientUnits="userSpaceOnUse">
<stop stop-color="#272727"/>
<stop offset="1"/>
</linearGradient>
<linearGradient id="paint1_linear_22_88" x1="2.28178" y1="1.10812" x2="17.1047" y2="24.1069" gradientUnits="userSpaceOnUse">
<stop stop-color="#272727"/>
<stop offset="1" stop-color="#272727" stop-opacity="0"/>
</linearGradient>
<linearGradient id="paint2_linear_22_88" x1="32.9242" y1="3.51694" x2="46.8892" y2="19.9496" gradientUnits="userSpaceOnUse">
<stop stop-color="#272727"/>
<stop offset="1"/>
</linearGradient>
<linearGradient id="paint3_linear_22_88" x1="44.3766" y1="2.51741" x2="52.9886" y2="5.23958" gradientUnits="userSpaceOnUse">
<stop stop-color="#272727"/>
<stop offset="1"/>
</linearGradient>
<linearGradient id="paint4_linear_22_88" x1="51.9231" y1="6.74088" x2="62.8158" y2="22.9957" gradientUnits="userSpaceOnUse">
<stop stop-color="#272727"/>
<stop offset="1"/>
</linearGradient>
<linearGradient id="paint5_linear_22_88" x1="65.5914" y1="6.73966" x2="76.2802" y2="23.4617" gradientUnits="userSpaceOnUse">
<stop stop-color="#272727"/>
<stop offset="1"/>
</linearGradient>
<clipPath id="clip0_22_88">
<rect width="75" height="24" fill="white"/>
</clipPath>
</defs>
</svg>
